<svg width="23" height="23" viewBox="0 0 23 23" fill="none" xmlns="http://www.w3.org/2000/svg">
<path d="M14.369 11.5L22.3997 3.46937C22.7808 3.08891 22.9952 2.57263 22.9957 2.0341C22.9961 1.49558 22.7827 0.978918 22.4022 0.597786C22.0218 0.216654 21.5055 0.00226916 20.9669 0.00179356C20.4284 0.00131797 19.9118 0.214791 19.5306 0.59525L11.5 8.62588L3.46937 0.59525C3.08824 0.214118 2.57131 0 2.03231 0C1.49331 0 0.976382 0.214118 0.59525 0.59525C0.214118 0.976382 0 1.49331 0 2.03231C0 2.57131 0.214118 3.08824 0.59525 3.46937L8.62588 11.5L0.59525 19.5306C0.214118 19.9118 0 20.4287 0 20.9677C0 21.5067 0.214118 22.0236 0.59525 22.4048C0.976382 22.7859 1.49331 23 2.03231 23C2.57131 23 3.08824 22.7859 3.46937 22.4048L11.5 14.3741L19.5306 22.4048C19.9118 22.7859 20.4287 23 20.9677 23C21.5067 23 22.0236 22.7859 22.4048 22.4048C22.7859 22.0236 23 21.5067 23 20.9677C23 20.4287 22.7859 19.9118 22.4048 19.5306L14.369 11.5Z" fill="black"/>
</svg>
